<svg width="40" height="40" viewBox="0 0 40 40" fill="none" xmlns="http://www.w3.org/2000/svg">
<g clip-path="url(#clip0_1112_10943)">
<path d="M12.2912 9.9635C10.9108 8.37124 7.87392 7.64942 5.89891 9.25229C4.24244 10.6004 3.81771 13.1056 5.06006 14.8146C5.952 14.3794 6.86518 14.39 7.78898 14.7827C8.73401 15.1861 9.45606 15.8336 9.89141 16.7784C10.2949 17.67 10.348 18.5617 9.74276 19.3897C9.12689 20.2176 8.24557 20.4193 7.2793 20.3026C5.72901 20.1115 4.38048 18.8695 4.03008 17.3516C3.97699 17.1287 3.90266 16.8739 3.97699 16.6722C4.21059 16.0247 3.89204 15.5576 3.61596 15.0163C1.72589 11.3647 4.35925 7.04436 8.46855 7.02313C10.0613 7.01252 11.4842 7.51142 12.7159 8.53047C12.8433 8.626 12.9707 8.72154 13.1194 8.84892C14.6272 7.1399 16.4854 6.08901 18.7471 5.77056C21.0195 5.46272 23.09 5.98286 25.0438 7.22482C25.0969 7.09744 25.15 7.0019 25.1819 6.88514C25.8933 4.37999 28.4842 2.64973 30.937 3.04249C33.8252 3.49894 35.779 5.8024 35.6091 8.59416C35.5666 9.1886 35.7047 9.63443 36.0232 10.1333C37.308 12.1077 37.2868 14.1458 36.0869 16.1733C35.9913 16.3431 35.8639 16.5661 35.9064 16.7253C36.2037 17.8929 35.8108 18.8589 35.0463 19.6869C34.165 20.6316 33.0607 21.0775 31.7546 20.9501C30.3424 20.8015 29.4717 19.3578 29.8858 17.9036C30.4061 16.0778 32.7634 14.4643 34.8552 15.4409C35.6834 14.7509 36.002 12.4474 34.9826 10.9507C33.5491 13.1374 31.5423 13.9866 28.9195 13.4983C28.9195 14.1564 28.9408 14.7827 28.9195 15.409C28.8664 16.6828 28.4948 17.8823 27.8577 18.9757C27.4967 19.5807 27.4117 20.1646 27.5285 20.8439C27.8577 22.6166 27.5179 24.2938 26.6047 25.833C25.3942 27.8817 24.5554 30.0472 24.1943 32.3931C24.0775 33.1892 24.0245 34.0066 23.9926 34.8133C23.9289 36.1827 23.1431 36.9682 21.784 36.9788C20.5629 36.9788 19.3418 36.9788 18.1206 36.9788C16.8571 36.9788 15.997 36.1933 15.9864 34.9195C15.9545 31.6076 15.0519 28.5611 13.3211 25.7375C12.3124 24.0921 12.1319 22.2663 12.4611 20.3662C12.5141 20.0584 12.4611 19.6763 12.3124 19.4109C10.5391 16.2901 10.571 13.1586 12.2912 9.9635ZM19.9789 35.6731C20.5947 35.6731 21.2212 35.6838 21.8371 35.6731C22.4211 35.6625 22.6228 35.4608 22.6653 34.877C22.7078 34.2189 22.7078 33.5714 22.7821 32.9132C23.1219 30.1427 24.0138 27.5633 25.4686 25.1855C26.2755 23.8692 26.4879 22.4043 26.2225 20.897C26.0632 20.0266 26.18 19.2623 26.626 18.5192C27.4542 17.1287 27.7515 15.6001 27.6347 13.9972C27.5922 13.3709 27.4542 12.8083 26.8596 12.3625C25.8508 11.6088 25.3093 10.5155 25.0651 9.27352C25.0226 9.05061 24.8845 8.80646 24.7146 8.66847C21.6778 6.14208 16.7509 6.61976 14.2131 9.6769C12.0151 12.3307 11.7072 15.6001 13.4061 18.6042C13.7777 19.2623 13.9582 19.9523 13.8096 20.6847C13.4804 22.33 13.714 23.8798 14.5953 25.3129C16.4005 28.2426 17.2712 31.4271 17.3349 34.8558C17.3455 35.4715 17.5473 35.6731 18.1737 35.6838C18.7684 35.6838 19.3736 35.6731 19.9789 35.6731ZM30.3211 4.35876C28.1338 4.35876 26.3499 6.12085 26.3286 8.31817C26.3074 10.5155 28.1019 12.3413 30.2999 12.3519C32.4979 12.3625 34.3243 10.5473 34.3243 8.36063C34.3349 6.1527 32.5298 4.35876 30.3211 4.35876ZM33.5597 16.5024C32.551 16.5024 31.4998 17.2667 31.2025 18.2326C30.9689 18.9863 31.3087 19.5595 32.0519 19.6763C33.0819 19.8461 34.526 18.7421 34.6428 17.6913C34.7384 16.927 34.3667 16.5024 33.5597 16.5024ZM6.4723 15.8442C5.53788 15.8336 5.11315 16.4068 5.38923 17.2985C5.6653 18.2008 6.76961 19.0181 7.72527 19.0288C8.56412 19.0394 9.03133 18.4343 8.80834 17.617C8.54288 16.6616 7.48104 15.8549 6.4723 15.8442Z" fill="#024785"/>
<path d="M14.6697 13.9123C14.744 12.1927 15.6997 10.5473 17.6428 9.58135C19.5435 8.64723 21.4442 8.80645 23.1431 10.059C24.8845 11.3435 25.6172 13.1374 25.1925 15.271C25.0332 16.0778 24.6616 16.8845 24.1944 17.5639C23.1007 19.1667 22.3043 20.8652 22.0601 22.7971C21.9963 23.2642 22.007 23.7524 21.9963 24.2301C21.9751 25.4296 21.1256 26.3213 19.9895 26.3213C18.8533 26.3319 17.9508 25.4402 17.972 24.2407C18.0145 21.7568 17.2287 19.5595 15.7634 17.5851C15.0519 16.6404 14.6697 15.5576 14.6697 13.9123ZM24.0032 14.252C24.0032 12.6703 22.8777 11.0887 21.3168 10.5686C19.6709 10.006 17.8446 10.5579 16.804 11.9379C15.7528 13.3285 15.6784 15.2498 16.7509 16.6722C18.4498 18.9438 19.3311 21.4702 19.3524 24.2938C19.3524 24.7184 19.5647 24.9838 19.9789 24.9944C20.4142 25.005 20.6372 24.7396 20.6478 24.2832C20.6691 21.4702 21.5291 18.9438 23.2281 16.7041C23.7484 16.0141 23.982 15.2073 24.0032 14.252Z" fill="#31EAD4"/>
<path d="M28.9833 8.37126C28.9727 8.7534 28.6754 9.00816 28.2719 8.97632C27.8578 8.95509 27.656 8.70032 27.6667 8.31818C27.6773 7.93604 27.9215 7.70251 28.3144 7.69189C28.6966 7.69189 28.994 8.01035 28.9833 8.37126Z" fill="#31EAD4"/>
<path d="M30.3106 7.01253C29.9496 7.00191 29.6204 6.66223 29.6629 6.31193C29.7054 5.91918 29.9496 5.70688 30.3318 5.68565C30.6929 5.66442 31.0114 6.02533 30.9796 6.38624C30.9371 6.779 30.7035 6.9913 30.3106 7.01253Z" fill="#31EAD4"/>
<path d="M32.9652 8.42434C32.9334 8.74279 32.7422 8.97633 32.3387 8.98694C31.9458 8.99756 31.6485 8.73218 31.6698 8.33942C31.691 7.94667 31.8928 7.72375 32.2963 7.70252C32.6785 7.68129 32.9758 7.9679 32.9652 8.42434Z" fill="#31EAD4"/>
<path d="M30.4167 9.69815C30.7459 9.73 30.9477 9.96353 30.9689 10.3457C30.9901 10.7278 30.6822 11.0144 30.2893 10.9932C29.8964 10.972 29.6735 10.7384 29.6628 10.3457C29.6416 9.98476 29.9708 9.68754 30.4167 9.69815Z" fill="#31EAD4"/>
</g>
<defs>
<clipPath id="clip0_1112_10943">
<rect width="34" height="34" fill="white" transform="translate(3 3)"/>
</clipPath>
</defs>
</svg>
